<svg width="20" height="20" viewBox="0 0 20 20" fill="none" xmlns="http://www.w3.org/2000/svg">
<path d="M11.4995 2.59995C11.5895 2.59995 11.6595 2.64335 11.6789 2.66515V17.3348C11.6595 17.3566 11.5896 17.4 11.4995 17.4C11.4265 17.4 11.3855 17.3708 11.358 17.3454L6.75641 13.0929L6.35411 12.7211H3.20701V7.27885H6.35411L6.75641 6.90705L11.358 2.65455C11.3855 2.62915 11.4265 2.59995 11.4995 2.59995ZM11.4995 1.19995C11.1168 1.19995 10.7266 1.33185 10.4078 1.62635L5.80621 5.87885H2.98321C2.33361 5.87885 1.80701 6.37085 1.80701 6.97785V13.0221C1.80701 13.629 2.33361 14.1211 2.98321 14.1211H5.80621L10.4078 18.3736C10.7265 18.6681 11.1169 18.8 11.4995 18.8C12.306 18.8 13.0789 18.2145 13.0789 17.3318V2.66815C13.079 1.78545 12.306 1.19995 11.4995 1.19995Z" fill="#C4E1FE"/>
<path d="M14.8934 10.5H17.4934C17.679 10.5 17.8571 10.4262 17.9883 10.295C18.1196 10.1637 18.1934 9.98563 18.1934 9.79998C18.1934 9.61433 18.1196 9.43628 17.9883 9.305C17.8571 9.17373 17.679 9.09998 17.4934 9.09998H14.8934C14.7077 9.09998 14.5297 9.17373 14.3984 9.305C14.2671 9.43628 14.1934 9.61433 14.1934 9.79998C14.1934 9.98563 14.2671 10.1637 14.3984 10.295C14.5297 10.4262 14.7077 10.5 14.8934 10.5Z" fill="#4CFDFE"/>
<path d="M15.4495 6.45618L17.7012 5.15618C17.7814 5.11055 17.8518 5.0495 17.9084 4.97654C17.965 4.90358 18.0065 4.82015 18.0307 4.73106C18.0549 4.64197 18.0612 4.54898 18.0493 4.45743C18.0374 4.36588 18.0076 4.2776 17.9614 4.19765C17.9152 4.1177 17.8537 4.04767 17.7804 3.9916C17.7071 3.93552 17.6234 3.8945 17.5341 3.87091C17.4449 3.84731 17.3518 3.8416 17.2604 3.85411C17.1689 3.86662 17.0808 3.89709 17.0012 3.94378L14.7495 5.24378C14.6692 5.28941 14.5988 5.35046 14.5422 5.42342C14.4857 5.49638 14.4441 5.5798 14.4199 5.66889C14.3957 5.75798 14.3894 5.85098 14.4013 5.94253C14.4132 6.03407 14.4431 6.12236 14.4892 6.20231C14.5354 6.28225 14.5969 6.35228 14.6702 6.40836C14.7436 6.46443 14.8273 6.50545 14.9165 6.52905C15.0058 6.55264 15.0988 6.55835 15.1903 6.54585C15.2817 6.53334 15.3698 6.50287 15.4495 6.45618Z" fill="#4CFDFE"/>
<path d="M14.7495 14.2562L17.0012 15.5562C17.0808 15.6029 17.1689 15.6333 17.2604 15.6458C17.3518 15.6584 17.4449 15.6526 17.5341 15.629C17.6234 15.6055 17.7071 15.5644 17.7804 15.5084C17.8537 15.4523 17.9152 15.3823 17.9614 15.3023C18.0076 15.2224 18.0374 15.1341 18.0493 15.0425C18.0612 14.951 18.0549 14.858 18.0307 14.7689C18.0065 14.6798 17.965 14.5964 17.9084 14.5234C17.8518 14.4505 17.7814 14.3894 17.7012 14.3438L15.4495 13.0438C15.3698 12.9971 15.2817 12.9666 15.1903 12.9541C15.0988 12.9416 15.0058 12.9473 14.9165 12.9709C14.8273 12.9945 14.7436 13.0355 14.6702 13.0916C14.5969 13.1477 14.5354 13.2177 14.4892 13.2976C14.4431 13.3776 14.4132 13.4659 14.4013 13.5574C14.3894 13.649 14.3957 13.742 14.4199 13.8311C14.4441 13.9202 14.4857 14.0036 14.5422 14.0765C14.5988 14.1495 14.6692 14.2106 14.7495 14.2562Z" fill="#4CFDFE"/>
</svg>
