<svg width="11" height="11" viewBox="0 0 11 11" fill="none" xmlns="http://www.w3.org/2000/svg">
<path fill-rule="evenodd" clip-rule="evenodd" d="M10.3094 5.77994C10.3093 5.72125 10.2876 5.66465 10.2484 5.62094L6.05743 1.01193C6.0189 0.969442 5.96632 0.942315 5.90936 0.935516C5.8524 0.928718 5.79489 0.942718 5.74744 0.974945L5.72247 0.994904C5.72247 0.994904 4.31544 2.54092 1.51544 5.62192C1.4945 5.64464 1.4783 5.67126 1.46771 5.70029C1.45713 5.72931 1.4524 5.76018 1.4538 5.79105C1.45519 5.82191 1.46267 5.8522 1.47583 5.88016C1.48899 5.90811 1.50756 5.93315 1.53046 5.95389C1.57432 5.99345 1.63136 6.01524 1.69043 6.01492L4.12042 6.01492C4.1154 6.23143 4.09505 6.4473 4.05945 6.66092L4.04846 6.72391C3.9509 7.55568 3.61257 8.34088 3.07501 8.98306C2.53746 9.62525 1.82408 10.0965 1.02246 10.3389L1.09943 10.3749C1.604 10.5994 2.14745 10.7238 2.69946 10.7409C3.97822 10.7441 5.20916 10.255 6.13708 9.37515C7.06501 8.49527 7.61874 7.29205 7.68347 6.01492L10.0745 6.01492C10.1371 6.01492 10.1973 5.99006 10.2417 5.94583C10.2861 5.9016 10.3112 5.84158 10.3115 5.7789L10.3094 5.77994Z" fill="#52CC70"/>
</svg>
